<mxfile host="app.diagrams.net" modified="2024-05-16T07:23:14.515Z" agent="Mozilla/5.0 (Macintosh; Intel Mac OS X 10_15_7) AppleWebKit/537.36 (KHTML, like Gecko) Chrome/116.0.0.0 Safari/537.36" etag="zxBTBgxaooQfWNGe0lTI" version="24.4.1" type="device">
  <diagram id="ZZVoWdoW-UHvi953zEAD" name="Page-2">
    <mxGraphModel dx="3176" dy="2036" grid="1" gridSize="10" guides="1" tooltips="1" connect="1" arrows="1" fold="1" page="1" pageScale="1" pageWidth="1654" pageHeight="1169" math="0" shadow="0">
      <root>
        <mxCell id="0" />
        <mxCell id="1" parent="0" />
        <mxCell id="N-HNZM68ss8QgqNn4z8V-127" style="edgeStyle=orthogonalEdgeStyle;rounded=0;orthogonalLoop=1;jettySize=auto;html=1;entryX=0.5;entryY=0;entryDx=0;entryDy=0;" parent="1" source="N-HNZM68ss8QgqNn4z8V-66" target="N-HNZM68ss8QgqNn4z8V-121" edge="1">
          <mxGeometry relative="1" as="geometry" />
        </mxCell>
        <mxCell id="N-HNZM68ss8QgqNn4z8V-160" style="edgeStyle=orthogonalEdgeStyle;rounded=0;orthogonalLoop=1;jettySize=auto;html=1;" parent="1" source="N-HNZM68ss8QgqNn4z8V-161" target="N-HNZM68ss8QgqNn4z8V-155" edge="1">
          <mxGeometry relative="1" as="geometry" />
        </mxCell>
        <mxCell id="N-HNZM68ss8QgqNn4z8V-66" value="User" style="swimlane;fontStyle=0;childLayout=stackLayout;horizontal=1;startSize=30;horizontalStack=0;resizeParent=1;resizeParentMax=0;resizeLast=0;collapsible=1;marginBottom=0;whiteSpace=wrap;html=1;fillColor=#647687;fontColor=#ffffff;strokeColor=#314354;" parent="1" vertex="1">
          <mxGeometry x="60" y="260" width="140" height="180" as="geometry" />
        </mxCell>
        <mxCell id="N-HNZM68ss8QgqNn4z8V-72" value="user_id:PK" style="text;strokeColor=#23445d;fillColor=#bac8d3;align=left;verticalAlign=middle;spacingLeft=4;spacingRight=4;overflow=hidden;points=[[0,0.5],[1,0.5]];portConstraint=eastwest;rotatable=0;whiteSpace=wrap;html=1;" parent="N-HNZM68ss8QgqNn4z8V-66" vertex="1">
          <mxGeometry y="30" width="140" height="30" as="geometry" />
        </mxCell>
        <mxCell id="N-HNZM68ss8QgqNn4z8V-68" value="password" style="text;strokeColor=#23445d;fillColor=#bac8d3;align=left;verticalAlign=middle;spacingLeft=4;spacingRight=4;overflow=hidden;points=[[0,0.5],[1,0.5]];portConstraint=eastwest;rotatable=0;whiteSpace=wrap;html=1;" parent="N-HNZM68ss8QgqNn4z8V-66" vertex="1">
          <mxGeometry y="60" width="140" height="30" as="geometry" />
        </mxCell>
        <mxCell id="N-HNZM68ss8QgqNn4z8V-76" value="email" style="text;strokeColor=#23445d;fillColor=#bac8d3;align=left;verticalAlign=middle;spacingLeft=4;spacingRight=4;overflow=hidden;points=[[0,0.5],[1,0.5]];portConstraint=eastwest;rotatable=0;whiteSpace=wrap;html=1;" parent="N-HNZM68ss8QgqNn4z8V-66" vertex="1">
          <mxGeometry y="90" width="140" height="30" as="geometry" />
        </mxCell>
        <mxCell id="N-HNZM68ss8QgqNn4z8V-69" value="user_type" style="text;strokeColor=#23445d;fillColor=#bac8d3;align=left;verticalAlign=middle;spacingLeft=4;spacingRight=4;overflow=hidden;points=[[0,0.5],[1,0.5]];portConstraint=eastwest;rotatable=0;whiteSpace=wrap;html=1;" parent="N-HNZM68ss8QgqNn4z8V-66" vertex="1">
          <mxGeometry y="120" width="140" height="30" as="geometry" />
        </mxCell>
        <mxCell id="N-HNZM68ss8QgqNn4z8V-77" value="location" style="text;strokeColor=#23445d;fillColor=#bac8d3;align=left;verticalAlign=middle;spacingLeft=4;spacingRight=4;overflow=hidden;points=[[0,0.5],[1,0.5]];portConstraint=eastwest;rotatable=0;whiteSpace=wrap;html=1;" parent="N-HNZM68ss8QgqNn4z8V-66" vertex="1">
          <mxGeometry y="150" width="140" height="30" as="geometry" />
        </mxCell>
        <mxCell id="N-HNZM68ss8QgqNn4z8V-229" style="edgeStyle=orthogonalEdgeStyle;rounded=0;orthogonalLoop=1;jettySize=auto;html=1;entryX=1;entryY=0.5;entryDx=0;entryDy=0;" parent="1" source="N-HNZM68ss8QgqNn4z8V-78" target="N-HNZM68ss8QgqNn4z8V-164" edge="1">
          <mxGeometry relative="1" as="geometry">
            <Array as="points">
              <mxPoint x="1060" y="68" />
            </Array>
          </mxGeometry>
        </mxCell>
        <mxCell id="N-HNZM68ss8QgqNn4z8V-256" style="edgeStyle=orthogonalEdgeStyle;rounded=0;orthogonalLoop=1;jettySize=auto;html=1;" parent="1" source="N-HNZM68ss8QgqNn4z8V-262" target="N-HNZM68ss8QgqNn4z8V-238" edge="1">
          <mxGeometry relative="1" as="geometry">
            <Array as="points">
              <mxPoint x="880" y="235" />
            </Array>
          </mxGeometry>
        </mxCell>
        <mxCell id="N-HNZM68ss8QgqNn4z8V-78" value="Professional" style="swimlane;fontStyle=0;childLayout=stackLayout;horizontal=1;startSize=30;horizontalStack=0;resizeParent=1;resizeParentMax=0;resizeLast=0;collapsible=1;marginBottom=0;whiteSpace=wrap;html=1;fillColor=#647687;fontColor=#ffffff;strokeColor=#314354;" parent="1" vertex="1">
          <mxGeometry x="990" y="260" width="140" height="210" as="geometry" />
        </mxCell>
        <mxCell id="N-HNZM68ss8QgqNn4z8V-79" value="professional_id:PK" style="text;strokeColor=#23445d;fillColor=#bac8d3;align=left;verticalAlign=middle;spacingLeft=4;spacingRight=4;overflow=hidden;points=[[0,0.5],[1,0.5]];portConstraint=eastwest;rotatable=0;whiteSpace=wrap;html=1;" parent="N-HNZM68ss8QgqNn4z8V-78" vertex="1">
          <mxGeometry y="30" width="140" height="30" as="geometry" />
        </mxCell>
        <mxCell id="N-HNZM68ss8QgqNn4z8V-80" value="user_id:FK(to User)" style="text;strokeColor=#23445d;fillColor=#bac8d3;align=left;verticalAlign=middle;spacingLeft=4;spacingRight=4;overflow=hidden;points=[[0,0.5],[1,0.5]];portConstraint=eastwest;rotatable=0;whiteSpace=wrap;html=1;" parent="N-HNZM68ss8QgqNn4z8V-78" vertex="1">
          <mxGeometry y="60" width="140" height="30" as="geometry" />
        </mxCell>
        <mxCell id="bHi8rNkQXIM7_2unnssP-1" value="profile_id:FK(to Profile)" style="text;strokeColor=#23445d;fillColor=#bac8d3;align=left;verticalAlign=middle;spacingLeft=4;spacingRight=4;overflow=hidden;points=[[0,0.5],[1,0.5]];portConstraint=eastwest;rotatable=0;whiteSpace=wrap;html=1;" vertex="1" parent="N-HNZM68ss8QgqNn4z8V-78">
          <mxGeometry y="90" width="140" height="30" as="geometry" />
        </mxCell>
        <mxCell id="N-HNZM68ss8QgqNn4z8V-81" value="photo" style="text;strokeColor=#23445d;fillColor=#bac8d3;align=left;verticalAlign=middle;spacingLeft=4;spacingRight=4;overflow=hidden;points=[[0,0.5],[1,0.5]];portConstraint=eastwest;rotatable=0;whiteSpace=wrap;html=1;" parent="N-HNZM68ss8QgqNn4z8V-78" vertex="1">
          <mxGeometry y="120" width="140" height="30" as="geometry" />
        </mxCell>
        <mxCell id="N-HNZM68ss8QgqNn4z8V-82" value="availability" style="text;strokeColor=#23445d;fillColor=#bac8d3;align=left;verticalAlign=middle;spacingLeft=4;spacingRight=4;overflow=hidden;points=[[0,0.5],[1,0.5]];portConstraint=eastwest;rotatable=0;whiteSpace=wrap;html=1;" parent="N-HNZM68ss8QgqNn4z8V-78" vertex="1">
          <mxGeometry y="150" width="140" height="30" as="geometry" />
        </mxCell>
        <mxCell id="N-HNZM68ss8QgqNn4z8V-83" value="rating" style="text;strokeColor=#23445d;fillColor=#bac8d3;align=left;verticalAlign=middle;spacingLeft=4;spacingRight=4;overflow=hidden;points=[[0,0.5],[1,0.5]];portConstraint=eastwest;rotatable=0;whiteSpace=wrap;html=1;" parent="N-HNZM68ss8QgqNn4z8V-78" vertex="1">
          <mxGeometry y="180" width="140" height="30" as="geometry" />
        </mxCell>
        <mxCell id="N-HNZM68ss8QgqNn4z8V-85" style="edgeStyle=orthogonalEdgeStyle;rounded=0;orthogonalLoop=1;jettySize=auto;html=1;" parent="1" source="N-HNZM68ss8QgqNn4z8V-88" target="N-HNZM68ss8QgqNn4z8V-82" edge="1">
          <mxGeometry relative="1" as="geometry">
            <Array as="points" />
          </mxGeometry>
        </mxCell>
        <mxCell id="N-HNZM68ss8QgqNn4z8V-88" value="can be &amp;amp;&amp;amp; must be" style="rhombus;whiteSpace=wrap;html=1;fillColor=#1ba1e2;fontColor=#ffffff;strokeColor=#006EAF;" parent="1" vertex="1">
          <mxGeometry x="480" y="355" width="80" height="80" as="geometry" />
        </mxCell>
        <mxCell id="N-HNZM68ss8QgqNn4z8V-90" value="1" style="text;html=1;align=center;verticalAlign=middle;whiteSpace=wrap;rounded=0;" parent="1" vertex="1">
          <mxGeometry x="200" y="370" width="60" height="30" as="geometry" />
        </mxCell>
        <mxCell id="N-HNZM68ss8QgqNn4z8V-91" value="1" style="text;html=1;align=center;verticalAlign=middle;whiteSpace=wrap;rounded=0;" parent="1" vertex="1">
          <mxGeometry x="1120" y="270" width="60" height="30" as="geometry" />
        </mxCell>
        <mxCell id="N-HNZM68ss8QgqNn4z8V-220" style="edgeStyle=orthogonalEdgeStyle;rounded=0;orthogonalLoop=1;jettySize=auto;html=1;dashed=1;" parent="1" source="N-HNZM68ss8QgqNn4z8V-92" target="N-HNZM68ss8QgqNn4z8V-218" edge="1">
          <mxGeometry relative="1" as="geometry">
            <Array as="points">
              <mxPoint x="130" y="920" />
              <mxPoint x="400" y="920" />
              <mxPoint x="400" y="1045" />
            </Array>
          </mxGeometry>
        </mxCell>
        <mxCell id="N-HNZM68ss8QgqNn4z8V-92" value="&lt;blockquote style=&quot;margin: 0 0 0 40px; border: none; padding: 0px;&quot;&gt;ServiceRequest&lt;span style=&quot;white-space: pre;&quot;&gt;&#x9;&lt;/span&gt;&lt;/blockquote&gt;" style="swimlane;fontStyle=0;childLayout=stackLayout;horizontal=1;startSize=30;horizontalStack=0;resizeParent=1;resizeParentMax=0;resizeLast=0;collapsible=1;marginBottom=0;whiteSpace=wrap;html=1;fillColor=#647687;fontColor=#ffffff;strokeColor=#314354;" parent="1" vertex="1">
          <mxGeometry x="60" y="619" width="140" height="270" as="geometry" />
        </mxCell>
        <mxCell id="N-HNZM68ss8QgqNn4z8V-93" value="request_id:PK" style="text;strokeColor=#23445d;fillColor=#bac8d3;align=left;verticalAlign=middle;spacingLeft=4;spacingRight=4;overflow=hidden;points=[[0,0.5],[1,0.5]];portConstraint=eastwest;rotatable=0;whiteSpace=wrap;html=1;" parent="N-HNZM68ss8QgqNn4z8V-92" vertex="1">
          <mxGeometry y="30" width="140" height="30" as="geometry" />
        </mxCell>
        <mxCell id="N-HNZM68ss8QgqNn4z8V-94" value="user_id:FK(to User)" style="text;strokeColor=#23445d;fillColor=#bac8d3;align=left;verticalAlign=middle;spacingLeft=4;spacingRight=4;overflow=hidden;points=[[0,0.5],[1,0.5]];portConstraint=eastwest;rotatable=0;whiteSpace=wrap;html=1;" parent="N-HNZM68ss8QgqNn4z8V-92" vertex="1">
          <mxGeometry y="60" width="140" height="30" as="geometry" />
        </mxCell>
        <mxCell id="bHi8rNkQXIM7_2unnssP-41" value="professional_id:FK(to Professional)" style="text;strokeColor=#23445d;fillColor=#bac8d3;align=left;verticalAlign=middle;spacingLeft=4;spacingRight=4;overflow=hidden;points=[[0,0.5],[1,0.5]];portConstraint=eastwest;rotatable=0;whiteSpace=wrap;html=1;" vertex="1" parent="N-HNZM68ss8QgqNn4z8V-92">
          <mxGeometry y="90" width="140" height="30" as="geometry" />
        </mxCell>
        <mxCell id="N-HNZM68ss8QgqNn4z8V-95" value="description" style="text;strokeColor=#23445d;fillColor=#bac8d3;align=left;verticalAlign=middle;spacingLeft=4;spacingRight=4;overflow=hidden;points=[[0,0.5],[1,0.5]];portConstraint=eastwest;rotatable=0;whiteSpace=wrap;html=1;" parent="N-HNZM68ss8QgqNn4z8V-92" vertex="1">
          <mxGeometry y="120" width="140" height="30" as="geometry" />
        </mxCell>
        <mxCell id="N-HNZM68ss8QgqNn4z8V-96" value="category" style="text;strokeColor=#23445d;fillColor=#bac8d3;align=left;verticalAlign=middle;spacingLeft=4;spacingRight=4;overflow=hidden;points=[[0,0.5],[1,0.5]];portConstraint=eastwest;rotatable=0;whiteSpace=wrap;html=1;" parent="N-HNZM68ss8QgqNn4z8V-92" vertex="1">
          <mxGeometry y="150" width="140" height="30" as="geometry" />
        </mxCell>
        <mxCell id="N-HNZM68ss8QgqNn4z8V-98" value="urgency" style="text;strokeColor=#23445d;fillColor=#bac8d3;align=left;verticalAlign=middle;spacingLeft=4;spacingRight=4;overflow=hidden;points=[[0,0.5],[1,0.5]];portConstraint=eastwest;rotatable=0;whiteSpace=wrap;html=1;" parent="N-HNZM68ss8QgqNn4z8V-92" vertex="1">
          <mxGeometry y="180" width="140" height="30" as="geometry" />
        </mxCell>
        <mxCell id="N-HNZM68ss8QgqNn4z8V-97" value="status" style="text;strokeColor=#23445d;fillColor=#bac8d3;align=left;verticalAlign=middle;spacingLeft=4;spacingRight=4;overflow=hidden;points=[[0,0.5],[1,0.5]];portConstraint=eastwest;rotatable=0;whiteSpace=wrap;html=1;" parent="N-HNZM68ss8QgqNn4z8V-92" vertex="1">
          <mxGeometry y="210" width="140" height="30" as="geometry" />
        </mxCell>
        <mxCell id="N-HNZM68ss8QgqNn4z8V-99" value="budget" style="text;strokeColor=#23445d;fillColor=#bac8d3;align=left;verticalAlign=middle;spacingLeft=4;spacingRight=4;overflow=hidden;points=[[0,0.5],[1,0.5]];portConstraint=eastwest;rotatable=0;whiteSpace=wrap;html=1;" parent="N-HNZM68ss8QgqNn4z8V-92" vertex="1">
          <mxGeometry y="240" width="140" height="30" as="geometry" />
        </mxCell>
        <mxCell id="N-HNZM68ss8QgqNn4z8V-141" style="edgeStyle=orthogonalEdgeStyle;rounded=0;orthogonalLoop=1;jettySize=auto;html=1;entryX=0.5;entryY=0;entryDx=0;entryDy=0;" parent="1" source="N-HNZM68ss8QgqNn4z8V-121" target="N-HNZM68ss8QgqNn4z8V-92" edge="1">
          <mxGeometry relative="1" as="geometry" />
        </mxCell>
        <mxCell id="N-HNZM68ss8QgqNn4z8V-121" value="submit&lt;div&gt;service request&lt;/div&gt;" style="rhombus;whiteSpace=wrap;html=1;fillColor=#6d8764;fontColor=#ffffff;strokeColor=#3A5431;" parent="1" vertex="1">
          <mxGeometry x="90" y="490" width="80" height="80" as="geometry" />
        </mxCell>
        <mxCell id="N-HNZM68ss8QgqNn4z8V-142" value="1" style="text;html=1;align=center;verticalAlign=middle;whiteSpace=wrap;rounded=0;" parent="1" vertex="1">
          <mxGeometry x="130" y="449" width="60" height="30" as="geometry" />
        </mxCell>
        <mxCell id="N-HNZM68ss8QgqNn4z8V-144" value="M" style="text;html=1;align=center;verticalAlign=middle;whiteSpace=wrap;rounded=0;" parent="1" vertex="1">
          <mxGeometry x="130" y="580" width="60" height="30" as="geometry" />
        </mxCell>
        <mxCell id="N-HNZM68ss8QgqNn4z8V-145" value="review" style="swimlane;fontStyle=0;childLayout=stackLayout;horizontal=1;startSize=30;horizontalStack=0;resizeParent=1;resizeParentMax=0;resizeLast=0;collapsible=1;marginBottom=0;whiteSpace=wrap;html=1;fillColor=#647687;fontColor=#ffffff;strokeColor=#314354;" parent="1" vertex="1">
          <mxGeometry x="440" y="539" width="140" height="210" as="geometry" />
        </mxCell>
        <mxCell id="N-HNZM68ss8QgqNn4z8V-146" value="review_id:PK" style="text;strokeColor=#23445d;fillColor=#bac8d3;align=left;verticalAlign=middle;spacingLeft=4;spacingRight=4;overflow=hidden;points=[[0,0.5],[1,0.5]];portConstraint=eastwest;rotatable=0;whiteSpace=wrap;html=1;" parent="N-HNZM68ss8QgqNn4z8V-145" vertex="1">
          <mxGeometry y="30" width="140" height="30" as="geometry" />
        </mxCell>
        <mxCell id="N-HNZM68ss8QgqNn4z8V-147" value="user_id:FK(to User)" style="text;strokeColor=#23445d;fillColor=#bac8d3;align=left;verticalAlign=middle;spacingLeft=4;spacingRight=4;overflow=hidden;points=[[0,0.5],[1,0.5]];portConstraint=eastwest;rotatable=0;whiteSpace=wrap;html=1;" parent="N-HNZM68ss8QgqNn4z8V-145" vertex="1">
          <mxGeometry y="60" width="140" height="30" as="geometry" />
        </mxCell>
        <mxCell id="N-HNZM68ss8QgqNn4z8V-148" value="professional_id:FK(to Professional)" style="text;strokeColor=#23445d;fillColor=#bac8d3;align=left;verticalAlign=middle;spacingLeft=4;spacingRight=4;overflow=hidden;points=[[0,0.5],[1,0.5]];portConstraint=eastwest;rotatable=0;whiteSpace=wrap;html=1;" parent="N-HNZM68ss8QgqNn4z8V-145" vertex="1">
          <mxGeometry y="90" width="140" height="30" as="geometry" />
        </mxCell>
        <mxCell id="N-HNZM68ss8QgqNn4z8V-149" value="rating" style="text;strokeColor=#23445d;fillColor=#bac8d3;align=left;verticalAlign=middle;spacingLeft=4;spacingRight=4;overflow=hidden;points=[[0,0.5],[1,0.5]];portConstraint=eastwest;rotatable=0;whiteSpace=wrap;html=1;" parent="N-HNZM68ss8QgqNn4z8V-145" vertex="1">
          <mxGeometry y="120" width="140" height="30" as="geometry" />
        </mxCell>
        <mxCell id="N-HNZM68ss8QgqNn4z8V-150" value="comment" style="text;strokeColor=#23445d;fillColor=#bac8d3;align=left;verticalAlign=middle;spacingLeft=4;spacingRight=4;overflow=hidden;points=[[0,0.5],[1,0.5]];portConstraint=eastwest;rotatable=0;whiteSpace=wrap;html=1;" parent="N-HNZM68ss8QgqNn4z8V-145" vertex="1">
          <mxGeometry y="150" width="140" height="30" as="geometry" />
        </mxCell>
        <mxCell id="N-HNZM68ss8QgqNn4z8V-170" value="timestamp" style="text;strokeColor=#23445d;fillColor=#bac8d3;align=left;verticalAlign=middle;spacingLeft=4;spacingRight=4;overflow=hidden;points=[[0,0.5],[1,0.5]];portConstraint=eastwest;rotatable=0;whiteSpace=wrap;html=1;" parent="N-HNZM68ss8QgqNn4z8V-145" vertex="1">
          <mxGeometry y="180" width="140" height="30" as="geometry" />
        </mxCell>
        <mxCell id="N-HNZM68ss8QgqNn4z8V-152" value="Appointment" style="swimlane;fontStyle=0;childLayout=stackLayout;horizontal=1;startSize=30;horizontalStack=0;resizeParent=1;resizeParentMax=0;resizeLast=0;collapsible=1;marginBottom=0;whiteSpace=wrap;html=1;fillColor=#647687;strokeColor=#314354;fontColor=#ffffff;" parent="1" vertex="1">
          <mxGeometry x="250" y="23" width="140" height="210" as="geometry" />
        </mxCell>
        <mxCell id="N-HNZM68ss8QgqNn4z8V-153" value="appointment_id:PK" style="text;strokeColor=#23445d;fillColor=#bac8d3;align=left;verticalAlign=middle;spacingLeft=4;spacingRight=4;overflow=hidden;points=[[0,0.5],[1,0.5]];portConstraint=eastwest;rotatable=0;whiteSpace=wrap;html=1;" parent="N-HNZM68ss8QgqNn4z8V-152" vertex="1">
          <mxGeometry y="30" width="140" height="30" as="geometry" />
        </mxCell>
        <mxCell id="N-HNZM68ss8QgqNn4z8V-154" value="professional_id:FK(to Professional)" style="text;strokeColor=#23445d;fillColor=#bac8d3;align=left;verticalAlign=middle;spacingLeft=4;spacingRight=4;overflow=hidden;points=[[0,0.5],[1,0.5]];portConstraint=eastwest;rotatable=0;whiteSpace=wrap;html=1;" parent="N-HNZM68ss8QgqNn4z8V-152" vertex="1">
          <mxGeometry y="60" width="140" height="30" as="geometry" />
        </mxCell>
        <mxCell id="N-HNZM68ss8QgqNn4z8V-155" value="user_id:FK(to User)" style="text;strokeColor=#23445d;fillColor=#bac8d3;align=left;verticalAlign=middle;spacingLeft=4;spacingRight=4;overflow=hidden;points=[[0,0.5],[1,0.5]];portConstraint=eastwest;rotatable=0;whiteSpace=wrap;html=1;" parent="N-HNZM68ss8QgqNn4z8V-152" vertex="1">
          <mxGeometry y="90" width="140" height="30" as="geometry" />
        </mxCell>
        <mxCell id="bHi8rNkQXIM7_2unnssP-42" value="request_id:FK(to ServiceRequest)" style="text;strokeColor=#23445d;fillColor=#bac8d3;align=left;verticalAlign=middle;spacingLeft=4;spacingRight=4;overflow=hidden;points=[[0,0.5],[1,0.5]];portConstraint=eastwest;rotatable=0;whiteSpace=wrap;html=1;" vertex="1" parent="N-HNZM68ss8QgqNn4z8V-152">
          <mxGeometry y="120" width="140" height="30" as="geometry" />
        </mxCell>
        <mxCell id="N-HNZM68ss8QgqNn4z8V-156" value="date" style="text;strokeColor=#23445d;fillColor=#bac8d3;align=left;verticalAlign=middle;spacingLeft=4;spacingRight=4;overflow=hidden;points=[[0,0.5],[1,0.5]];portConstraint=eastwest;rotatable=0;whiteSpace=wrap;html=1;" parent="N-HNZM68ss8QgqNn4z8V-152" vertex="1">
          <mxGeometry y="150" width="140" height="30" as="geometry" />
        </mxCell>
        <mxCell id="N-HNZM68ss8QgqNn4z8V-157" value="status" style="text;strokeColor=#23445d;fillColor=#bac8d3;align=left;verticalAlign=middle;spacingLeft=4;spacingRight=4;overflow=hidden;points=[[0,0.5],[1,0.5]];portConstraint=eastwest;rotatable=0;whiteSpace=wrap;html=1;" parent="N-HNZM68ss8QgqNn4z8V-152" vertex="1">
          <mxGeometry y="180" width="140" height="30" as="geometry" />
        </mxCell>
        <mxCell id="N-HNZM68ss8QgqNn4z8V-165" value="1" style="text;html=1;align=center;verticalAlign=middle;whiteSpace=wrap;rounded=0;" parent="1" vertex="1">
          <mxGeometry x="70" y="220" width="60" height="30" as="geometry" />
        </mxCell>
        <mxCell id="N-HNZM68ss8QgqNn4z8V-166" value="M" style="text;html=1;align=center;verticalAlign=middle;whiteSpace=wrap;rounded=0;" parent="1" vertex="1">
          <mxGeometry x="190" y="88" width="60" height="30" as="geometry" />
        </mxCell>
        <mxCell id="N-HNZM68ss8QgqNn4z8V-167" value="M" style="text;html=1;align=center;verticalAlign=middle;whiteSpace=wrap;rounded=0;" parent="1" vertex="1">
          <mxGeometry x="390" y="78" width="60" height="30" as="geometry" />
        </mxCell>
        <mxCell id="N-HNZM68ss8QgqNn4z8V-168" value="1" style="text;html=1;align=center;verticalAlign=middle;whiteSpace=wrap;rounded=0;" parent="1" vertex="1">
          <mxGeometry x="1000" y="220" width="60" height="30" as="geometry" />
        </mxCell>
        <mxCell id="N-HNZM68ss8QgqNn4z8V-176" style="edgeStyle=orthogonalEdgeStyle;rounded=0;orthogonalLoop=1;jettySize=auto;html=1;entryX=0;entryY=0.5;entryDx=0;entryDy=0;" parent="1" source="N-HNZM68ss8QgqNn4z8V-179" target="N-HNZM68ss8QgqNn4z8V-146" edge="1">
          <mxGeometry relative="1" as="geometry" />
        </mxCell>
        <mxCell id="N-HNZM68ss8QgqNn4z8V-179" value="give" style="rhombus;whiteSpace=wrap;html=1;fillColor=#e51400;fontColor=#ffffff;strokeColor=#B20000;" parent="1" vertex="1">
          <mxGeometry x="290" y="459" width="80" height="80" as="geometry" />
        </mxCell>
        <mxCell id="N-HNZM68ss8QgqNn4z8V-181" style="edgeStyle=orthogonalEdgeStyle;rounded=0;orthogonalLoop=1;jettySize=auto;html=1;entryX=0.5;entryY=0;entryDx=0;entryDy=0;" parent="1" source="N-HNZM68ss8QgqNn4z8V-77" target="N-HNZM68ss8QgqNn4z8V-179" edge="1">
          <mxGeometry relative="1" as="geometry" />
        </mxCell>
        <mxCell id="N-HNZM68ss8QgqNn4z8V-183" value="" style="edgeStyle=orthogonalEdgeStyle;rounded=0;orthogonalLoop=1;jettySize=auto;html=1;entryX=0.505;entryY=1.022;entryDx=0;entryDy=0;entryPerimeter=0;" parent="1" source="N-HNZM68ss8QgqNn4z8V-145" target="N-HNZM68ss8QgqNn4z8V-182" edge="1">
          <mxGeometry relative="1" as="geometry">
            <mxPoint x="664" y="569" as="sourcePoint" />
            <mxPoint x="725" y="441" as="targetPoint" />
            <Array as="points">
              <mxPoint x="1060" y="655" />
            </Array>
          </mxGeometry>
        </mxCell>
        <mxCell id="N-HNZM68ss8QgqNn4z8V-204" style="edgeStyle=orthogonalEdgeStyle;rounded=0;orthogonalLoop=1;jettySize=auto;html=1;" parent="1" source="N-HNZM68ss8QgqNn4z8V-182" target="N-HNZM68ss8QgqNn4z8V-78" edge="1">
          <mxGeometry relative="1" as="geometry" />
        </mxCell>
        <mxCell id="N-HNZM68ss8QgqNn4z8V-182" value="receive" style="rhombus;whiteSpace=wrap;html=1;fillColor=#e3c800;fontColor=#000000;strokeColor=#B09500;" parent="1" vertex="1">
          <mxGeometry x="1020" y="539" width="80" height="80" as="geometry" />
        </mxCell>
        <mxCell id="N-HNZM68ss8QgqNn4z8V-188" value="handle" style="rhombus;whiteSpace=wrap;html=1;fillColor=#76608a;fontColor=#ffffff;strokeColor=#432D57;" parent="1" vertex="1">
          <mxGeometry x="1170" y="790" width="80" height="80" as="geometry" />
        </mxCell>
        <mxCell id="N-HNZM68ss8QgqNn4z8V-196" value="1" style="text;html=1;align=center;verticalAlign=middle;whiteSpace=wrap;rounded=0;" parent="1" vertex="1">
          <mxGeometry x="210" y="429" width="60" height="30" as="geometry" />
        </mxCell>
        <mxCell id="N-HNZM68ss8QgqNn4z8V-197" value="M" style="text;html=1;align=center;verticalAlign=middle;whiteSpace=wrap;rounded=0;" parent="1" vertex="1">
          <mxGeometry x="380" y="589" width="60" height="30" as="geometry" />
        </mxCell>
        <mxCell id="N-HNZM68ss8QgqNn4z8V-198" value="M" style="text;html=1;align=center;verticalAlign=middle;whiteSpace=wrap;rounded=0;" parent="1" vertex="1">
          <mxGeometry x="570" y="660" width="60" height="30" as="geometry" />
        </mxCell>
        <mxCell id="N-HNZM68ss8QgqNn4z8V-199" value="1" style="text;html=1;align=center;verticalAlign=middle;whiteSpace=wrap;rounded=0;" parent="1" vertex="1">
          <mxGeometry x="1060" y="479" width="60" height="30" as="geometry" />
        </mxCell>
        <mxCell id="N-HNZM68ss8QgqNn4z8V-201" style="edgeStyle=orthogonalEdgeStyle;rounded=0;orthogonalLoop=1;jettySize=auto;html=1;entryX=0.5;entryY=0;entryDx=0;entryDy=0;" parent="1" source="N-HNZM68ss8QgqNn4z8V-79" target="N-HNZM68ss8QgqNn4z8V-188" edge="1">
          <mxGeometry relative="1" as="geometry" />
        </mxCell>
        <mxCell id="N-HNZM68ss8QgqNn4z8V-202" value="M" style="text;html=1;align=center;verticalAlign=middle;whiteSpace=wrap;rounded=0;" parent="1" vertex="1">
          <mxGeometry x="70" y="889" width="60" height="30" as="geometry" />
        </mxCell>
        <mxCell id="N-HNZM68ss8QgqNn4z8V-205" value="" style="edgeStyle=orthogonalEdgeStyle;rounded=0;orthogonalLoop=1;jettySize=auto;html=1;" parent="1" source="N-HNZM68ss8QgqNn4z8V-66" target="N-HNZM68ss8QgqNn4z8V-161" edge="1">
          <mxGeometry relative="1" as="geometry">
            <mxPoint x="130" y="260" as="sourcePoint" />
            <mxPoint x="514" y="128" as="targetPoint" />
          </mxGeometry>
        </mxCell>
        <mxCell id="N-HNZM68ss8QgqNn4z8V-161" value="have" style="rhombus;whiteSpace=wrap;html=1;fillColor=#a0522d;fontColor=#ffffff;strokeColor=#6D1F00;" parent="1" vertex="1">
          <mxGeometry x="90" y="88" width="80" height="80" as="geometry" />
        </mxCell>
        <mxCell id="N-HNZM68ss8QgqNn4z8V-244" style="edgeStyle=orthogonalEdgeStyle;rounded=0;orthogonalLoop=1;jettySize=auto;html=1;entryX=1;entryY=0.5;entryDx=0;entryDy=0;" parent="1" source="N-HNZM68ss8QgqNn4z8V-164" target="N-HNZM68ss8QgqNn4z8V-153" edge="1">
          <mxGeometry relative="1" as="geometry">
            <Array as="points">
              <mxPoint x="630" y="68" />
              <mxPoint x="630" y="68" />
            </Array>
          </mxGeometry>
        </mxCell>
        <mxCell id="N-HNZM68ss8QgqNn4z8V-164" value="have" style="rhombus;whiteSpace=wrap;html=1;fillColor=#fa6800;fontColor=#000000;strokeColor=#C73500;" parent="1" vertex="1">
          <mxGeometry x="670" y="28" width="80" height="80" as="geometry" />
        </mxCell>
        <mxCell id="N-HNZM68ss8QgqNn4z8V-210" value="Transaction" style="swimlane;fontStyle=0;childLayout=stackLayout;horizontal=1;startSize=30;horizontalStack=0;resizeParent=1;resizeParentMax=0;resizeLast=0;collapsible=1;marginBottom=0;whiteSpace=wrap;html=1;fillColor=#647687;fontColor=#ffffff;strokeColor=#314354;" parent="1" vertex="1">
          <mxGeometry x="600" y="970" width="140" height="180" as="geometry" />
        </mxCell>
        <mxCell id="N-HNZM68ss8QgqNn4z8V-211" value="transaction_id:PK" style="text;strokeColor=#23445d;fillColor=#bac8d3;align=left;verticalAlign=middle;spacingLeft=4;spacingRight=4;overflow=hidden;points=[[0,0.5],[1,0.5]];portConstraint=eastwest;rotatable=0;whiteSpace=wrap;html=1;" parent="N-HNZM68ss8QgqNn4z8V-210" vertex="1">
          <mxGeometry y="30" width="140" height="30" as="geometry" />
        </mxCell>
        <mxCell id="N-HNZM68ss8QgqNn4z8V-212" value="user_id:FK(to User)" style="text;strokeColor=#23445d;fillColor=#bac8d3;align=left;verticalAlign=middle;spacingLeft=4;spacingRight=4;overflow=hidden;points=[[0,0.5],[1,0.5]];portConstraint=eastwest;rotatable=0;whiteSpace=wrap;html=1;" parent="N-HNZM68ss8QgqNn4z8V-210" vertex="1">
          <mxGeometry y="60" width="140" height="30" as="geometry" />
        </mxCell>
        <mxCell id="N-HNZM68ss8QgqNn4z8V-213" value="professional_id:FK(to Professional)" style="text;strokeColor=#23445d;fillColor=#bac8d3;align=left;verticalAlign=middle;spacingLeft=4;spacingRight=4;overflow=hidden;points=[[0,0.5],[1,0.5]];portConstraint=eastwest;rotatable=0;whiteSpace=wrap;html=1;" parent="N-HNZM68ss8QgqNn4z8V-210" vertex="1">
          <mxGeometry y="90" width="140" height="30" as="geometry" />
        </mxCell>
        <mxCell id="N-HNZM68ss8QgqNn4z8V-214" value="amount" style="text;strokeColor=#23445d;fillColor=#bac8d3;align=left;verticalAlign=middle;spacingLeft=4;spacingRight=4;overflow=hidden;points=[[0,0.5],[1,0.5]];portConstraint=eastwest;rotatable=0;whiteSpace=wrap;html=1;" parent="N-HNZM68ss8QgqNn4z8V-210" vertex="1">
          <mxGeometry y="120" width="140" height="30" as="geometry" />
        </mxCell>
        <mxCell id="N-HNZM68ss8QgqNn4z8V-215" value="timestamp" style="text;strokeColor=#23445d;fillColor=#bac8d3;align=left;verticalAlign=middle;spacingLeft=4;spacingRight=4;overflow=hidden;points=[[0,0.5],[1,0.5]];portConstraint=eastwest;rotatable=0;whiteSpace=wrap;html=1;" parent="N-HNZM68ss8QgqNn4z8V-210" vertex="1">
          <mxGeometry y="150" width="140" height="30" as="geometry" />
        </mxCell>
        <mxCell id="N-HNZM68ss8QgqNn4z8V-216" style="edgeStyle=orthogonalEdgeStyle;rounded=0;orthogonalLoop=1;jettySize=auto;html=1;exitX=0.5;exitY=1;exitDx=0;exitDy=0;" parent="1" source="N-HNZM68ss8QgqNn4z8V-188" target="N-HNZM68ss8QgqNn4z8V-92" edge="1">
          <mxGeometry relative="1" as="geometry">
            <mxPoint x="950" y="860" as="sourcePoint" />
            <Array as="points">
              <mxPoint x="1210" y="920" />
              <mxPoint x="130" y="920" />
            </Array>
          </mxGeometry>
        </mxCell>
        <mxCell id="N-HNZM68ss8QgqNn4z8V-221" style="edgeStyle=orthogonalEdgeStyle;rounded=0;orthogonalLoop=1;jettySize=auto;html=1;dashed=1;" parent="1" source="N-HNZM68ss8QgqNn4z8V-218" target="N-HNZM68ss8QgqNn4z8V-212" edge="1">
          <mxGeometry relative="1" as="geometry" />
        </mxCell>
        <mxCell id="N-HNZM68ss8QgqNn4z8V-218" value="pay" style="rhombus;whiteSpace=wrap;html=1;fillColor=#e3c800;fontColor=#000000;strokeColor=#B09500;" parent="1" vertex="1">
          <mxGeometry x="360" y="1005" width="80" height="80" as="geometry" />
        </mxCell>
        <mxCell id="N-HNZM68ss8QgqNn4z8V-226" value="" style="edgeStyle=orthogonalEdgeStyle;rounded=0;orthogonalLoop=1;jettySize=auto;html=1;entryX=0.5;entryY=1;entryDx=0;entryDy=0;dashed=1;" parent="1" source="N-HNZM68ss8QgqNn4z8V-210" target="N-HNZM68ss8QgqNn4z8V-225" edge="1">
          <mxGeometry relative="1" as="geometry">
            <mxPoint x="560" y="970" as="sourcePoint" />
            <mxPoint x="654" y="425" as="targetPoint" />
            <Array as="points">
              <mxPoint x="680" y="930" />
              <mxPoint x="680" y="930" />
            </Array>
          </mxGeometry>
        </mxCell>
        <mxCell id="N-HNZM68ss8QgqNn4z8V-227" style="edgeStyle=orthogonalEdgeStyle;rounded=0;orthogonalLoop=1;jettySize=auto;html=1;entryX=0;entryY=0.5;entryDx=0;entryDy=0;dashed=1;" parent="1" source="N-HNZM68ss8QgqNn4z8V-225" target="N-HNZM68ss8QgqNn4z8V-83" edge="1">
          <mxGeometry relative="1" as="geometry" />
        </mxCell>
        <mxCell id="N-HNZM68ss8QgqNn4z8V-225" value="get paid" style="rhombus;whiteSpace=wrap;html=1;fillColor=#d80073;fontColor=#ffffff;strokeColor=#A50040;" parent="1" vertex="1">
          <mxGeometry x="640" y="750" width="80" height="80" as="geometry" />
        </mxCell>
        <mxCell id="N-HNZM68ss8QgqNn4z8V-238" value="Message" style="swimlane;fontStyle=0;childLayout=stackLayout;horizontal=1;startSize=30;horizontalStack=0;resizeParent=1;resizeParentMax=0;resizeLast=0;collapsible=1;marginBottom=0;whiteSpace=wrap;html=1;fillColor=#647687;fontColor=#ffffff;strokeColor=#314354;" parent="1" vertex="1">
          <mxGeometry x="630" y="145" width="140" height="180" as="geometry" />
        </mxCell>
        <mxCell id="N-HNZM68ss8QgqNn4z8V-239" value="message_id:PK" style="text;strokeColor=#23445d;fillColor=#bac8d3;align=left;verticalAlign=middle;spacingLeft=4;spacingRight=4;overflow=hidden;points=[[0,0.5],[1,0.5]];portConstraint=eastwest;rotatable=0;whiteSpace=wrap;html=1;" parent="N-HNZM68ss8QgqNn4z8V-238" vertex="1">
          <mxGeometry y="30" width="140" height="30" as="geometry" />
        </mxCell>
        <mxCell id="N-HNZM68ss8QgqNn4z8V-240" value="sender_id:FK(to User or Professional)" style="text;strokeColor=#23445d;fillColor=#bac8d3;align=left;verticalAlign=middle;spacingLeft=4;spacingRight=4;overflow=hidden;points=[[0,0.5],[1,0.5]];portConstraint=eastwest;rotatable=0;whiteSpace=wrap;html=1;" parent="N-HNZM68ss8QgqNn4z8V-238" vertex="1">
          <mxGeometry y="60" width="140" height="30" as="geometry" />
        </mxCell>
        <mxCell id="N-HNZM68ss8QgqNn4z8V-241" value="receiver_id:FK(to User or professional)" style="text;strokeColor=#23445d;fillColor=#bac8d3;align=left;verticalAlign=middle;spacingLeft=4;spacingRight=4;overflow=hidden;points=[[0,0.5],[1,0.5]];portConstraint=eastwest;rotatable=0;whiteSpace=wrap;html=1;" parent="N-HNZM68ss8QgqNn4z8V-238" vertex="1">
          <mxGeometry y="90" width="140" height="30" as="geometry" />
        </mxCell>
        <mxCell id="N-HNZM68ss8QgqNn4z8V-242" value="content(text-image-video)" style="text;strokeColor=#23445d;fillColor=#bac8d3;align=left;verticalAlign=middle;spacingLeft=4;spacingRight=4;overflow=hidden;points=[[0,0.5],[1,0.5]];portConstraint=eastwest;rotatable=0;whiteSpace=wrap;html=1;" parent="N-HNZM68ss8QgqNn4z8V-238" vertex="1">
          <mxGeometry y="120" width="140" height="30" as="geometry" />
        </mxCell>
        <mxCell id="N-HNZM68ss8QgqNn4z8V-243" value="timestamp" style="text;strokeColor=#23445d;fillColor=#bac8d3;align=left;verticalAlign=middle;spacingLeft=4;spacingRight=4;overflow=hidden;points=[[0,0.5],[1,0.5]];portConstraint=eastwest;rotatable=0;whiteSpace=wrap;html=1;" parent="N-HNZM68ss8QgqNn4z8V-238" vertex="1">
          <mxGeometry y="150" width="140" height="30" as="geometry" />
        </mxCell>
        <mxCell id="N-HNZM68ss8QgqNn4z8V-257" style="edgeStyle=orthogonalEdgeStyle;rounded=0;orthogonalLoop=1;jettySize=auto;html=1;entryX=0;entryY=0.5;entryDx=0;entryDy=0;" parent="1" source="N-HNZM68ss8QgqNn4z8V-69" target="N-HNZM68ss8QgqNn4z8V-88" edge="1">
          <mxGeometry relative="1" as="geometry" />
        </mxCell>
        <mxCell id="N-HNZM68ss8QgqNn4z8V-258" style="edgeStyle=orthogonalEdgeStyle;rounded=0;orthogonalLoop=1;jettySize=auto;html=1;" parent="1" source="N-HNZM68ss8QgqNn4z8V-260" target="N-HNZM68ss8QgqNn4z8V-238" edge="1">
          <mxGeometry relative="1" as="geometry">
            <Array as="points">
              <mxPoint x="440" y="235" />
            </Array>
          </mxGeometry>
        </mxCell>
        <mxCell id="N-HNZM68ss8QgqNn4z8V-261" value="" style="edgeStyle=orthogonalEdgeStyle;rounded=0;orthogonalLoop=1;jettySize=auto;html=1;" parent="1" source="N-HNZM68ss8QgqNn4z8V-72" target="N-HNZM68ss8QgqNn4z8V-260" edge="1">
          <mxGeometry relative="1" as="geometry">
            <mxPoint x="200" y="305" as="sourcePoint" />
            <mxPoint x="630" y="235" as="targetPoint" />
            <Array as="points" />
          </mxGeometry>
        </mxCell>
        <mxCell id="N-HNZM68ss8QgqNn4z8V-260" value="communicate" style="rhombus;whiteSpace=wrap;html=1;fillColor=#76608a;fontColor=#ffffff;strokeColor=#432D57;" parent="1" vertex="1">
          <mxGeometry x="400" y="265" width="80" height="80" as="geometry" />
        </mxCell>
        <mxCell id="N-HNZM68ss8QgqNn4z8V-263" value="" style="edgeStyle=orthogonalEdgeStyle;rounded=0;orthogonalLoop=1;jettySize=auto;html=1;" parent="1" source="N-HNZM68ss8QgqNn4z8V-78" target="N-HNZM68ss8QgqNn4z8V-262" edge="1">
          <mxGeometry relative="1" as="geometry">
            <mxPoint x="990" y="365" as="sourcePoint" />
            <mxPoint x="770" y="235" as="targetPoint" />
            <Array as="points">
              <mxPoint x="880" y="365" />
            </Array>
          </mxGeometry>
        </mxCell>
        <mxCell id="N-HNZM68ss8QgqNn4z8V-262" value="communicate" style="rhombus;whiteSpace=wrap;html=1;fillColor=#a0522d;fontColor=#ffffff;strokeColor=#6D1F00;" parent="1" vertex="1">
          <mxGeometry x="840" y="260" width="80" height="80" as="geometry" />
        </mxCell>
        <mxCell id="N-HNZM68ss8QgqNn4z8V-264" value="1" style="text;html=1;align=center;verticalAlign=middle;whiteSpace=wrap;rounded=0;" parent="1" vertex="1">
          <mxGeometry x="190" y="270" width="60" height="30" as="geometry" />
        </mxCell>
        <mxCell id="N-HNZM68ss8QgqNn4z8V-265" value="1" style="text;html=1;align=center;verticalAlign=middle;whiteSpace=wrap;rounded=0;" parent="1" vertex="1">
          <mxGeometry x="930" y="335" width="60" height="30" as="geometry" />
        </mxCell>
        <mxCell id="bHi8rNkQXIM7_2unnssP-30" style="edgeStyle=orthogonalEdgeStyle;rounded=0;orthogonalLoop=1;jettySize=auto;html=1;entryX=0.5;entryY=0;entryDx=0;entryDy=0;" edge="1" parent="1" source="bHi8rNkQXIM7_2unnssP-2" target="bHi8rNkQXIM7_2unnssP-12">
          <mxGeometry relative="1" as="geometry" />
        </mxCell>
        <mxCell id="bHi8rNkQXIM7_2unnssP-2" value="Domain" style="swimlane;fontStyle=0;childLayout=stackLayout;horizontal=1;startSize=30;horizontalStack=0;resizeParent=1;resizeParentMax=0;resizeLast=0;collapsible=1;marginBottom=0;whiteSpace=wrap;html=1;fillColor=#647687;fontColor=#ffffff;strokeColor=#314354;" vertex="1" parent="1">
          <mxGeometry x="1410" y="730" width="140" height="90" as="geometry" />
        </mxCell>
        <mxCell id="bHi8rNkQXIM7_2unnssP-3" value="domain_id:PK" style="text;strokeColor=#23445d;fillColor=#bac8d3;align=left;verticalAlign=middle;spacingLeft=4;spacingRight=4;overflow=hidden;points=[[0,0.5],[1,0.5]];portConstraint=eastwest;rotatable=0;whiteSpace=wrap;html=1;" vertex="1" parent="bHi8rNkQXIM7_2unnssP-2">
          <mxGeometry y="30" width="140" height="30" as="geometry" />
        </mxCell>
        <mxCell id="bHi8rNkQXIM7_2unnssP-4" value="domain_name" style="text;strokeColor=#23445d;fillColor=#bac8d3;align=left;verticalAlign=middle;spacingLeft=4;spacingRight=4;overflow=hidden;points=[[0,0.5],[1,0.5]];portConstraint=eastwest;rotatable=0;whiteSpace=wrap;html=1;" vertex="1" parent="bHi8rNkQXIM7_2unnssP-2">
          <mxGeometry y="60" width="140" height="30" as="geometry" />
        </mxCell>
        <mxCell id="bHi8rNkQXIM7_2unnssP-9" style="edgeStyle=orthogonalEdgeStyle;rounded=0;orthogonalLoop=1;jettySize=auto;html=1;entryX=0;entryY=0.5;entryDx=0;entryDy=0;" edge="1" parent="1" source="bHi8rNkQXIM7_2unnssP-10" target="bHi8rNkQXIM7_2unnssP-3">
          <mxGeometry relative="1" as="geometry" />
        </mxCell>
        <mxCell id="bHi8rNkQXIM7_2unnssP-11" value="" style="edgeStyle=orthogonalEdgeStyle;rounded=0;orthogonalLoop=1;jettySize=auto;html=1;entryX=0;entryY=0.5;entryDx=0;entryDy=0;" edge="1" parent="1" source="N-HNZM68ss8QgqNn4z8V-82" target="bHi8rNkQXIM7_2unnssP-10">
          <mxGeometry relative="1" as="geometry">
            <mxPoint x="1130" y="395" as="sourcePoint" />
            <mxPoint x="1390" y="395" as="targetPoint" />
          </mxGeometry>
        </mxCell>
        <mxCell id="bHi8rNkQXIM7_2unnssP-10" value="propose" style="rhombus;whiteSpace=wrap;html=1;fillColor=#fa6800;fontColor=#000000;strokeColor=#C73500;" vertex="1" parent="1">
          <mxGeometry x="1230" y="429" width="80" height="80" as="geometry" />
        </mxCell>
        <mxCell id="bHi8rNkQXIM7_2unnssP-12" value="Service" style="swimlane;fontStyle=0;childLayout=stackLayout;horizontal=1;startSize=30;horizontalStack=0;resizeParent=1;resizeParentMax=0;resizeLast=0;collapsible=1;marginBottom=0;whiteSpace=wrap;html=1;fillColor=#647687;fontColor=#ffffff;strokeColor=#314354;" vertex="1" parent="1">
          <mxGeometry x="1410" y="985" width="140" height="120" as="geometry" />
        </mxCell>
        <mxCell id="bHi8rNkQXIM7_2unnssP-13" value="service_id:PK" style="text;strokeColor=#23445d;fillColor=#bac8d3;align=left;verticalAlign=middle;spacingLeft=4;spacingRight=4;overflow=hidden;points=[[0,0.5],[1,0.5]];portConstraint=eastwest;rotatable=0;whiteSpace=wrap;html=1;" vertex="1" parent="bHi8rNkQXIM7_2unnssP-12">
          <mxGeometry y="30" width="140" height="30" as="geometry" />
        </mxCell>
        <mxCell id="bHi8rNkQXIM7_2unnssP-14" value="domain_id:FK(to Domain)" style="text;strokeColor=#23445d;fillColor=#bac8d3;align=left;verticalAlign=middle;spacingLeft=4;spacingRight=4;overflow=hidden;points=[[0,0.5],[1,0.5]];portConstraint=eastwest;rotatable=0;whiteSpace=wrap;html=1;" vertex="1" parent="bHi8rNkQXIM7_2unnssP-12">
          <mxGeometry y="60" width="140" height="30" as="geometry" />
        </mxCell>
        <mxCell id="bHi8rNkQXIM7_2unnssP-15" value="service_name" style="text;strokeColor=#23445d;fillColor=#bac8d3;align=left;verticalAlign=middle;spacingLeft=4;spacingRight=4;overflow=hidden;points=[[0,0.5],[1,0.5]];portConstraint=eastwest;rotatable=0;whiteSpace=wrap;html=1;" vertex="1" parent="bHi8rNkQXIM7_2unnssP-12">
          <mxGeometry y="90" width="140" height="30" as="geometry" />
        </mxCell>
        <mxCell id="bHi8rNkQXIM7_2unnssP-17" value="Image" style="swimlane;fontStyle=0;childLayout=stackLayout;horizontal=1;startSize=30;horizontalStack=0;resizeParent=1;resizeParentMax=0;resizeLast=0;collapsible=1;marginBottom=0;whiteSpace=wrap;html=1;fillColor=#647687;fontColor=#ffffff;strokeColor=#314354;" vertex="1" parent="1">
          <mxGeometry x="1410" y="509" width="140" height="120" as="geometry" />
        </mxCell>
        <mxCell id="bHi8rNkQXIM7_2unnssP-18" value="image_id:PK" style="text;strokeColor=#23445d;fillColor=#bac8d3;align=left;verticalAlign=middle;spacingLeft=4;spacingRight=4;overflow=hidden;points=[[0,0.5],[1,0.5]];portConstraint=eastwest;rotatable=0;whiteSpace=wrap;html=1;" vertex="1" parent="bHi8rNkQXIM7_2unnssP-17">
          <mxGeometry y="30" width="140" height="30" as="geometry" />
        </mxCell>
        <mxCell id="bHi8rNkQXIM7_2unnssP-19" value="professional_id:FK(to Professional)" style="text;strokeColor=#23445d;fillColor=#bac8d3;align=left;verticalAlign=middle;spacingLeft=4;spacingRight=4;overflow=hidden;points=[[0,0.5],[1,0.5]];portConstraint=eastwest;rotatable=0;whiteSpace=wrap;html=1;" vertex="1" parent="bHi8rNkQXIM7_2unnssP-17">
          <mxGeometry y="60" width="140" height="30" as="geometry" />
        </mxCell>
        <mxCell id="bHi8rNkQXIM7_2unnssP-20" value="image_url" style="text;strokeColor=#23445d;fillColor=#bac8d3;align=left;verticalAlign=middle;spacingLeft=4;spacingRight=4;overflow=hidden;points=[[0,0.5],[1,0.5]];portConstraint=eastwest;rotatable=0;whiteSpace=wrap;html=1;" vertex="1" parent="bHi8rNkQXIM7_2unnssP-17">
          <mxGeometry y="90" width="140" height="30" as="geometry" />
        </mxCell>
        <mxCell id="bHi8rNkQXIM7_2unnssP-21" value="Video" style="swimlane;fontStyle=0;childLayout=stackLayout;horizontal=1;startSize=30;horizontalStack=0;resizeParent=1;resizeParentMax=0;resizeLast=0;collapsible=1;marginBottom=0;whiteSpace=wrap;html=1;fillColor=#647687;fontColor=#ffffff;strokeColor=#314354;" vertex="1" parent="1">
          <mxGeometry x="1460" y="290" width="140" height="120" as="geometry" />
        </mxCell>
        <mxCell id="bHi8rNkQXIM7_2unnssP-22" value="video_id:PK" style="text;strokeColor=#23445d;fillColor=#bac8d3;align=left;verticalAlign=middle;spacingLeft=4;spacingRight=4;overflow=hidden;points=[[0,0.5],[1,0.5]];portConstraint=eastwest;rotatable=0;whiteSpace=wrap;html=1;" vertex="1" parent="bHi8rNkQXIM7_2unnssP-21">
          <mxGeometry y="30" width="140" height="30" as="geometry" />
        </mxCell>
        <mxCell id="bHi8rNkQXIM7_2unnssP-23" value="professional_id:FK(to Professional)" style="text;strokeColor=#23445d;fillColor=#bac8d3;align=left;verticalAlign=middle;spacingLeft=4;spacingRight=4;overflow=hidden;points=[[0,0.5],[1,0.5]];portConstraint=eastwest;rotatable=0;whiteSpace=wrap;html=1;" vertex="1" parent="bHi8rNkQXIM7_2unnssP-21">
          <mxGeometry y="60" width="140" height="30" as="geometry" />
        </mxCell>
        <mxCell id="bHi8rNkQXIM7_2unnssP-24" value="video_url" style="text;strokeColor=#23445d;fillColor=#bac8d3;align=left;verticalAlign=middle;spacingLeft=4;spacingRight=4;overflow=hidden;points=[[0,0.5],[1,0.5]];portConstraint=eastwest;rotatable=0;whiteSpace=wrap;html=1;" vertex="1" parent="bHi8rNkQXIM7_2unnssP-21">
          <mxGeometry y="90" width="140" height="30" as="geometry" />
        </mxCell>
        <mxCell id="bHi8rNkQXIM7_2unnssP-28" value="" style="edgeStyle=orthogonalEdgeStyle;rounded=0;orthogonalLoop=1;jettySize=auto;html=1;" edge="1" parent="1" source="N-HNZM68ss8QgqNn4z8V-78" target="bHi8rNkQXIM7_2unnssP-27">
          <mxGeometry relative="1" as="geometry">
            <mxPoint x="1130" y="365" as="sourcePoint" />
            <mxPoint x="1430" y="220" as="targetPoint" />
          </mxGeometry>
        </mxCell>
        <mxCell id="bHi8rNkQXIM7_2unnssP-29" style="edgeStyle=orthogonalEdgeStyle;rounded=0;orthogonalLoop=1;jettySize=auto;html=1;" edge="1" parent="1" source="bHi8rNkQXIM7_2unnssP-27" target="bHi8rNkQXIM7_2unnssP-23">
          <mxGeometry relative="1" as="geometry" />
        </mxCell>
        <mxCell id="bHi8rNkQXIM7_2unnssP-51" style="edgeStyle=orthogonalEdgeStyle;rounded=0;orthogonalLoop=1;jettySize=auto;html=1;entryX=0;entryY=0.5;entryDx=0;entryDy=0;" edge="1" parent="1" source="bHi8rNkQXIM7_2unnssP-27" target="bHi8rNkQXIM7_2unnssP-19">
          <mxGeometry relative="1" as="geometry">
            <Array as="points">
              <mxPoint x="1350" y="365" />
              <mxPoint x="1350" y="584" />
            </Array>
          </mxGeometry>
        </mxCell>
        <mxCell id="bHi8rNkQXIM7_2unnssP-27" value="post" style="rhombus;whiteSpace=wrap;html=1;fillColor=#6d8764;fontColor=#ffffff;strokeColor=#3A5431;" vertex="1" parent="1">
          <mxGeometry x="1240" y="325" width="80" height="80" as="geometry" />
        </mxCell>
        <mxCell id="bHi8rNkQXIM7_2unnssP-31" value="has" style="rhombus;whiteSpace=wrap;html=1;fillColor=#e51400;fontColor=#ffffff;strokeColor=#B20000;" vertex="1" parent="1">
          <mxGeometry x="1440" y="859" width="80" height="80" as="geometry" />
        </mxCell>
        <mxCell id="bHi8rNkQXIM7_2unnssP-33" value="1" style="text;html=1;align=center;verticalAlign=middle;whiteSpace=wrap;rounded=0;" vertex="1" parent="1">
          <mxGeometry x="1120" y="400" width="60" height="30" as="geometry" />
        </mxCell>
        <mxCell id="bHi8rNkQXIM7_2unnssP-34" value="1" style="text;html=1;align=center;verticalAlign=middle;whiteSpace=wrap;rounded=0;" vertex="1" parent="1">
          <mxGeometry x="1340" y="740" width="60" height="30" as="geometry" />
        </mxCell>
        <mxCell id="bHi8rNkQXIM7_2unnssP-36" value="1" style="text;html=1;align=center;verticalAlign=middle;whiteSpace=wrap;rounded=0;" vertex="1" parent="1">
          <mxGeometry x="1490" y="829" width="60" height="30" as="geometry" />
        </mxCell>
        <mxCell id="bHi8rNkQXIM7_2unnssP-37" value="M" style="text;html=1;align=center;verticalAlign=middle;whiteSpace=wrap;rounded=0;" vertex="1" parent="1">
          <mxGeometry x="1480" y="955" width="60" height="30" as="geometry" />
        </mxCell>
        <mxCell id="bHi8rNkQXIM7_2unnssP-38" value="1" style="text;html=1;align=center;verticalAlign=middle;whiteSpace=wrap;rounded=0;" vertex="1" parent="1">
          <mxGeometry x="1120" y="335" width="60" height="30" as="geometry" />
        </mxCell>
        <mxCell id="bHi8rNkQXIM7_2unnssP-39" value="2" style="text;html=1;align=center;verticalAlign=middle;whiteSpace=wrap;rounded=0;" vertex="1" parent="1">
          <mxGeometry x="1390" y="335" width="60" height="30" as="geometry" />
        </mxCell>
        <mxCell id="bHi8rNkQXIM7_2unnssP-40" value="4" style="text;html=1;align=center;verticalAlign=middle;whiteSpace=wrap;rounded=0;" vertex="1" parent="1">
          <mxGeometry x="1350" y="550" width="60" height="30" as="geometry" />
        </mxCell>
        <mxCell id="bHi8rNkQXIM7_2unnssP-43" value="M" style="text;html=1;align=center;verticalAlign=middle;whiteSpace=wrap;rounded=0;" vertex="1" parent="1">
          <mxGeometry x="560" y="200" width="60" height="30" as="geometry" />
        </mxCell>
        <mxCell id="bHi8rNkQXIM7_2unnssP-44" value="M" style="text;html=1;align=center;verticalAlign=middle;whiteSpace=wrap;rounded=0;" vertex="1" parent="1">
          <mxGeometry x="780" y="200" width="60" height="30" as="geometry" />
        </mxCell>
        <mxCell id="bHi8rNkQXIM7_2unnssP-45" value="Profile" style="swimlane;fontStyle=0;childLayout=stackLayout;horizontal=1;startSize=30;horizontalStack=0;resizeParent=1;resizeParentMax=0;resizeLast=0;collapsible=1;marginBottom=0;whiteSpace=wrap;html=1;fillColor=#647687;fontColor=#ffffff;strokeColor=#314354;" vertex="1" parent="1">
          <mxGeometry x="1200" y="20" width="140" height="210" as="geometry" />
        </mxCell>
        <mxCell id="bHi8rNkQXIM7_2unnssP-46" value="profile_id:PK" style="text;strokeColor=#23445d;fillColor=#bac8d3;align=left;verticalAlign=middle;spacingLeft=4;spacingRight=4;overflow=hidden;points=[[0,0.5],[1,0.5]];portConstraint=eastwest;rotatable=0;whiteSpace=wrap;html=1;" vertex="1" parent="bHi8rNkQXIM7_2unnssP-45">
          <mxGeometry y="30" width="140" height="30" as="geometry" />
        </mxCell>
        <mxCell id="bHi8rNkQXIM7_2unnssP-47" value="professional_id:FK(to Professional)" style="text;strokeColor=#23445d;fillColor=#bac8d3;align=left;verticalAlign=middle;spacingLeft=4;spacingRight=4;overflow=hidden;points=[[0,0.5],[1,0.5]];portConstraint=eastwest;rotatable=0;whiteSpace=wrap;html=1;" vertex="1" parent="bHi8rNkQXIM7_2unnssP-45">
          <mxGeometry y="60" width="140" height="30" as="geometry" />
        </mxCell>
        <mxCell id="bHi8rNkQXIM7_2unnssP-59" value="experience_bg_id:FK(to ExperienceBackground)" style="text;strokeColor=#23445d;fillColor=#bac8d3;align=left;verticalAlign=middle;spacingLeft=4;spacingRight=4;overflow=hidden;points=[[0,0.5],[1,0.5]];portConstraint=eastwest;rotatable=0;whiteSpace=wrap;html=1;" vertex="1" parent="bHi8rNkQXIM7_2unnssP-45">
          <mxGeometry y="90" width="140" height="30" as="geometry" />
        </mxCell>
        <mxCell id="bHi8rNkQXIM7_2unnssP-48" value="about" style="text;strokeColor=#23445d;fillColor=#bac8d3;align=left;verticalAlign=middle;spacingLeft=4;spacingRight=4;overflow=hidden;points=[[0,0.5],[1,0.5]];portConstraint=eastwest;rotatable=0;whiteSpace=wrap;html=1;" vertex="1" parent="bHi8rNkQXIM7_2unnssP-45">
          <mxGeometry y="120" width="140" height="30" as="geometry" />
        </mxCell>
        <mxCell id="bHi8rNkQXIM7_2unnssP-50" value="title" style="text;strokeColor=#23445d;fillColor=#bac8d3;align=left;verticalAlign=middle;spacingLeft=4;spacingRight=4;overflow=hidden;points=[[0,0.5],[1,0.5]];portConstraint=eastwest;rotatable=0;whiteSpace=wrap;html=1;" vertex="1" parent="bHi8rNkQXIM7_2unnssP-45">
          <mxGeometry y="150" width="140" height="30" as="geometry" />
        </mxCell>
        <mxCell id="bHi8rNkQXIM7_2unnssP-49" value="year_of_experience" style="text;strokeColor=#23445d;fillColor=#bac8d3;align=left;verticalAlign=middle;spacingLeft=4;spacingRight=4;overflow=hidden;points=[[0,0.5],[1,0.5]];portConstraint=eastwest;rotatable=0;whiteSpace=wrap;html=1;" vertex="1" parent="bHi8rNkQXIM7_2unnssP-45">
          <mxGeometry y="180" width="140" height="30" as="geometry" />
        </mxCell>
        <mxCell id="bHi8rNkQXIM7_2unnssP-52" value="ExperienceBackground" style="swimlane;fontStyle=0;childLayout=stackLayout;horizontal=1;startSize=30;horizontalStack=0;resizeParent=1;resizeParentMax=0;resizeLast=0;collapsible=1;marginBottom=0;whiteSpace=wrap;html=1;fillColor=#647687;fontColor=#ffffff;strokeColor=#314354;" vertex="1" parent="1">
          <mxGeometry x="1480" y="20" width="140" height="180" as="geometry" />
        </mxCell>
        <mxCell id="bHi8rNkQXIM7_2unnssP-53" value="experience_bg_id:PK" style="text;strokeColor=#23445d;fillColor=#bac8d3;align=left;verticalAlign=middle;spacingLeft=4;spacingRight=4;overflow=hidden;points=[[0,0.5],[1,0.5]];portConstraint=eastwest;rotatable=0;whiteSpace=wrap;html=1;" vertex="1" parent="bHi8rNkQXIM7_2unnssP-52">
          <mxGeometry y="30" width="140" height="30" as="geometry" />
        </mxCell>
        <mxCell id="bHi8rNkQXIM7_2unnssP-54" value="worked_at" style="text;strokeColor=#23445d;fillColor=#bac8d3;align=left;verticalAlign=middle;spacingLeft=4;spacingRight=4;overflow=hidden;points=[[0,0.5],[1,0.5]];portConstraint=eastwest;rotatable=0;whiteSpace=wrap;html=1;" vertex="1" parent="bHi8rNkQXIM7_2unnssP-52">
          <mxGeometry y="60" width="140" height="30" as="geometry" />
        </mxCell>
        <mxCell id="bHi8rNkQXIM7_2unnssP-55" value="duration" style="text;strokeColor=#23445d;fillColor=#bac8d3;align=left;verticalAlign=middle;spacingLeft=4;spacingRight=4;overflow=hidden;points=[[0,0.5],[1,0.5]];portConstraint=eastwest;rotatable=0;whiteSpace=wrap;html=1;" vertex="1" parent="bHi8rNkQXIM7_2unnssP-52">
          <mxGeometry y="90" width="140" height="30" as="geometry" />
        </mxCell>
        <mxCell id="bHi8rNkQXIM7_2unnssP-56" value="title" style="text;strokeColor=#23445d;fillColor=#bac8d3;align=left;verticalAlign=middle;spacingLeft=4;spacingRight=4;overflow=hidden;points=[[0,0.5],[1,0.5]];portConstraint=eastwest;rotatable=0;whiteSpace=wrap;html=1;" vertex="1" parent="bHi8rNkQXIM7_2unnssP-52">
          <mxGeometry y="120" width="140" height="30" as="geometry" />
        </mxCell>
        <mxCell id="bHi8rNkQXIM7_2unnssP-57" value="assigned_work" style="text;strokeColor=#23445d;fillColor=#bac8d3;align=left;verticalAlign=middle;spacingLeft=4;spacingRight=4;overflow=hidden;points=[[0,0.5],[1,0.5]];portConstraint=eastwest;rotatable=0;whiteSpace=wrap;html=1;" vertex="1" parent="bHi8rNkQXIM7_2unnssP-52">
          <mxGeometry y="150" width="140" height="30" as="geometry" />
        </mxCell>
        <mxCell id="bHi8rNkQXIM7_2unnssP-72" style="edgeStyle=orthogonalEdgeStyle;rounded=0;orthogonalLoop=1;jettySize=auto;html=1;entryX=0;entryY=0.5;entryDx=0;entryDy=0;" edge="1" parent="1" source="bHi8rNkQXIM7_2unnssP-62" target="bHi8rNkQXIM7_2unnssP-55">
          <mxGeometry relative="1" as="geometry" />
        </mxCell>
        <mxCell id="bHi8rNkQXIM7_2unnssP-62" value="associated" style="rhombus;whiteSpace=wrap;html=1;fillColor=#a20025;fontColor=#ffffff;strokeColor=#6F0000;" vertex="1" parent="1">
          <mxGeometry x="1370" y="85" width="80" height="80" as="geometry" />
        </mxCell>
        <mxCell id="bHi8rNkQXIM7_2unnssP-69" style="edgeStyle=orthogonalEdgeStyle;rounded=0;orthogonalLoop=1;jettySize=auto;html=1;entryX=0;entryY=0.5;entryDx=0;entryDy=0;" edge="1" parent="1" source="bHi8rNkQXIM7_2unnssP-64" target="bHi8rNkQXIM7_2unnssP-59">
          <mxGeometry relative="1" as="geometry" />
        </mxCell>
        <mxCell id="bHi8rNkQXIM7_2unnssP-64" value="has" style="rhombus;whiteSpace=wrap;html=1;fillColor=#1ba1e2;fontColor=#ffffff;strokeColor=#006EAF;" vertex="1" parent="1">
          <mxGeometry x="1090" y="145" width="80" height="80" as="geometry" />
        </mxCell>
        <mxCell id="bHi8rNkQXIM7_2unnssP-70" style="edgeStyle=orthogonalEdgeStyle;rounded=0;orthogonalLoop=1;jettySize=auto;html=1;exitX=0.75;exitY=1;exitDx=0;exitDy=0;entryX=0.5;entryY=1;entryDx=0;entryDy=0;" edge="1" parent="1" source="bHi8rNkQXIM7_2unnssP-65" target="bHi8rNkQXIM7_2unnssP-64">
          <mxGeometry relative="1" as="geometry" />
        </mxCell>
        <mxCell id="bHi8rNkQXIM7_2unnssP-65" value="1" style="text;html=1;align=center;verticalAlign=middle;whiteSpace=wrap;rounded=0;" vertex="1" parent="1">
          <mxGeometry x="1080" y="230" width="60" height="30" as="geometry" />
        </mxCell>
        <mxCell id="bHi8rNkQXIM7_2unnssP-66" value="0...1" style="text;html=1;align=center;verticalAlign=middle;whiteSpace=wrap;rounded=0;" vertex="1" parent="1">
          <mxGeometry x="1150" y="95" width="60" height="30" as="geometry" />
        </mxCell>
        <mxCell id="bHi8rNkQXIM7_2unnssP-67" value="0...M" style="text;html=1;align=center;verticalAlign=middle;whiteSpace=wrap;rounded=0;" vertex="1" parent="1">
          <mxGeometry x="1430" y="85" width="60" height="30" as="geometry" />
        </mxCell>
        <mxCell id="bHi8rNkQXIM7_2unnssP-68" value="1" style="text;html=1;align=center;verticalAlign=middle;whiteSpace=wrap;rounded=0;" vertex="1" parent="1">
          <mxGeometry x="1340" y="88" width="60" height="30" as="geometry" />
        </mxCell>
        <mxCell id="bHi8rNkQXIM7_2unnssP-73" style="edgeStyle=orthogonalEdgeStyle;rounded=0;orthogonalLoop=1;jettySize=auto;html=1;entryX=0;entryY=0.5;entryDx=0;entryDy=0;" edge="1" parent="1" source="bHi8rNkQXIM7_2unnssP-59" target="bHi8rNkQXIM7_2unnssP-62">
          <mxGeometry relative="1" as="geometry" />
        </mxCell>
      </root>
    </mxGraphModel>
  </diagram>
</mxfile>
